<svg width="75" height="80" viewBox="0 0 75 80" version="1.1" xmlns="http://www.w3.org/2000/svg" xmlns:xlink="http://www.w3.org/1999/xlink">
<title>BJ ESL</title>
<desc>Created using Figma</desc>
<g id="Canvas" transform="translate(-415 3476)">
<rect x="415" y="-3476" width="75" height="80" fill="#E5E5E5"/>
<clipPath id="clip-0" clip-rule="evenodd">
  <path d="M 378 -3500L 1818 -3500L 1818 -2476L 378 -2476L 378 -3500Z" fill="#FFFFFF"/>
  </clipPath>
    <g id="ABOUT" clip-path="url(#clip-0)">
    <path d="M 378 -3500L 1818 -3500L 1818 -2476L 378 -2476L 378 -3500Z" fill="#FFFFFF"/>
    <g id="Menu bar">
      <path d="M 372 -3500L 1818 -3500L 1818 -3395L 372 -3395L 372 -3500Z" fill="#FFFFFF"/>
      <g id="Rectangle">
        <use xlink:href="#path0_fill" transform="translate(372 -3500)" fill="#FFFFFF"/>
        </g>
          <g id="BJ ESL">
          <use xlink:href="#path1_fill" transform="translate(412 -3488)" fill="#003262"/>
          </g>
            </g>
            </g>
            </g>
            <defs>
            <path id="path0_fill" d="M 0 0L 1446 0L 1446 122L 0 122L 0 0Z"/>
            <path id="path1_fill" d="M 14.15 49L 4.25 49L 4.25 15.9C 4.25 15.8667 4.18333 15.6 4.05 15.1C 3.95 14.6 3.83333 14.0833 3.7 13.55C 3.6 12.9833 3.55 12.6667 3.55 12.6L 15.7 12.6C 23.0667 12.6 26.75 15.4167 26.75 21.05C 26.75 23.0167 26.1833 24.7833 25.05 26.35C 23.95 27.8833 22.4667 28.8167 20.6 29.15C 23.0333 29.5167 24.9333 30.6 26.3 32.4C 27.7 34.1667 28.4 36.3 28.4 38.8C 28.4 40.8667 28 42.6167 27.2 44.05C 26.4333 45.45 25.3167 46.5 23.85 47.2C 22.4167 47.8667 20.9333 48.3333 19.4 48.6C 17.9 48.8667 16.15 49 14.15 49ZM 8.9 27.65L 14.25 27.65C 16.7167 27.65 18.6 27.15 19.9 26.15C 21.2333 25.15 21.9 23.4833 21.9 21.15C 21.9 17.75 19.7833 16.05 15.55 16.05L 8.9 16.05L 8.9 27.65ZM 8.9 45.55L 14.45 45.55C 17.35 45.55 19.5667 45 21.1 43.9C 22.6667 42.8 23.45 40.85 23.45 38.05C 23.45 35.6833 22.5667 33.9333 20.8 32.8C 19.0667 31.6667 16.95 31.1 14.45 31.1L 8.9 31.1L 8.9 45.55ZM 30.1629 59.55L 29.5629 56.95C 30.7962 56.7833 31.8129 56.3333 32.6129 55.6C 33.4129 54.9 33.9796 53.9667 34.3129 52.8C 34.6462 51.6333 34.8629 50.5833 34.9629 49.65C 35.0629 48.7167 35.1129 47.5833 35.1129 46.25L 35.1129 15.9L 34.3629 12.6L 39.7629 12.6L 39.7629 45.95C 39.7629 47.45 39.6796 48.7833 39.5129 49.95C 39.3796 51.15 39.0962 52.3333 38.6629 53.5C 38.2629 54.6667 37.7129 55.65 37.0129 56.45C 36.3462 57.25 35.4296 57.9333 34.2629 58.5C 33.0962 59.0667 31.7296 59.4167 30.1629 59.55ZM 25.45 91L 4.3 91L 4.3 57.9C 4.3 57.8667 4.23333 57.6 4.1 57.1C 4 56.6 3.88333 56.0833 3.75 55.55C 3.65 54.9833 3.6 54.6667 3.6 54.6L 25.45 54.6L 25.45 58.05L 8.95 58.05L 8.95 70.6L 21.75 70.6L 21.75 74L 8.95 74L 8.95 87.55L 25.45 87.55L 25.45 91ZM 29.0414 88.9L 30.8414 84.8C 31.9414 85.7667 33.2747 86.55 34.8414 87.15C 36.4081 87.7167 37.9081 88 39.3414 88C 41.2414 88 42.9414 87.4667 44.4414 86.4C 45.9414 85.3333 46.6914 83.7833 46.6914 81.75C 46.6914 80.0167 46.1081 78.55 44.9414 77.35C 43.8081 76.15 42.4247 75.2 40.7914 74.5C 39.1581 73.7667 37.5247 73.0167 35.8914 72.25C 34.2914 71.45 32.9081 70.3333 31.7414 68.9C 30.6081 67.4667 30.0414 65.7 30.0414 63.6C 30.0414 60.6333 31.1747 58.3167 33.4414 56.65C 35.7081 54.95 38.3747 54.1 41.4414 54.1C 44.6747 54.1 47.8081 55 50.8414 56.8L 48.5414 60.15C 46.2081 58.4833 43.8247 57.65 41.3914 57.65C 39.4914 57.65 37.9581 58.1167 36.7914 59.05C 35.6247 59.9833 35.0414 61.3667 35.0414 63.2C 35.0414 64.2333 35.3414 65.1667 35.9414 66C 36.5747 66.8 37.3747 67.4833 38.3414 68.05C 39.3081 68.6167 40.3747 69.1667 41.5414 69.7C 42.7414 70.2333 43.9414 70.8333 45.1414 71.5C 46.3414 72.1333 47.4247 72.85 48.3914 73.65C 49.3581 74.45 50.1414 75.4833 50.7414 76.75C 51.3747 78.0167 51.6914 79.4667 51.6914 81.1C 51.6914 84.5 50.4914 87.1 48.0914 88.9C 45.6914 90.7 42.7247 91.6 39.1914 91.6C 35.9247 91.6 32.5414 90.7 29.0414 88.9ZM 77.4727 91L 57.5227 91L 57.5227 57.9C 57.5227 57.8667 57.456 57.6 57.3227 57.1C 57.2227 56.6 57.106 56.0833 56.9727 55.55C 56.8727 54.9833 56.8227 54.6667 56.8227 54.6L 62.1727 54.6L 62.1727 87.55L 77.4727 87.55L 77.4727 91Z"/>
            </defs>
              </svg>

